<mxfile host="app.diagrams.net" modified="2022-02-24T10:55:20.940Z" agent="5.0 (Macintosh; Intel Mac OS X 10_15_7) AppleWebKit/537.36 (KHTML, like Gecko) Chrome/97.0.4692.71 Safari/537.36" etag="AhhwHV1xLyjcW0GVztw8" version="16.6.1" type="github">
  <diagram id="Rsgn22jSeU_7pNccAdjG" name="第 1 页">
    <mxGraphModel dx="946" dy="511" grid="1" gridSize="10" guides="1" tooltips="1" connect="1" arrows="1" fold="1" page="1" pageScale="1" pageWidth="827" pageHeight="1169" background="#ffffff" math="0" shadow="0">
      <root>
        <mxCell id="0" />
        <mxCell id="1" parent="0" />
        <mxCell id="q7EGyFAUahFd5ot8oOuE-1" value="开发者" style="rounded=1;whiteSpace=wrap;html=1;sketch=0;fillColor=#dae8fc;strokeColor=#6c8ebf;" vertex="1" parent="1">
          <mxGeometry x="80" y="150" width="40" height="110" as="geometry" />
        </mxCell>
        <mxCell id="q7EGyFAUahFd5ot8oOuE-8" style="edgeStyle=orthogonalEdgeStyle;rounded=0;orthogonalLoop=1;jettySize=auto;html=1;exitX=1;exitY=0.5;exitDx=0;exitDy=0;" edge="1" parent="1" source="q7EGyFAUahFd5ot8oOuE-2">
          <mxGeometry relative="1" as="geometry">
            <mxPoint x="250" y="205" as="targetPoint" />
          </mxGeometry>
        </mxCell>
        <mxCell id="q7EGyFAUahFd5ot8oOuE-2" value="cli" style="rounded=1;whiteSpace=wrap;html=1;sketch=0;glass=0;shadow=0;fillColor=#dae8fc;strokeColor=#6c8ebf;" vertex="1" parent="1">
          <mxGeometry x="170" y="150" width="40" height="110" as="geometry" />
        </mxCell>
        <mxCell id="q7EGyFAUahFd5ot8oOuE-5" value="" style="endArrow=classic;html=1;rounded=0;" edge="1" parent="1">
          <mxGeometry width="50" height="50" relative="1" as="geometry">
            <mxPoint x="120" y="190" as="sourcePoint" />
            <mxPoint x="170" y="190" as="targetPoint" />
          </mxGeometry>
        </mxCell>
        <mxCell id="q7EGyFAUahFd5ot8oOuE-6" value="" style="endArrow=classic;html=1;rounded=0;" edge="1" parent="1">
          <mxGeometry width="50" height="50" relative="1" as="geometry">
            <mxPoint x="170" y="210" as="sourcePoint" />
            <mxPoint x="120" y="210" as="targetPoint" />
          </mxGeometry>
        </mxCell>
        <mxCell id="q7EGyFAUahFd5ot8oOuE-7" value="交互" style="text;html=1;align=center;verticalAlign=middle;resizable=0;points=[];autosize=1;strokeColor=none;fillColor=none;" vertex="1" parent="1">
          <mxGeometry x="120" y="160" width="40" height="20" as="geometry" />
        </mxCell>
        <mxCell id="q7EGyFAUahFd5ot8oOuE-19" style="edgeStyle=orthogonalEdgeStyle;rounded=0;orthogonalLoop=1;jettySize=auto;html=1;exitX=1;exitY=0.5;exitDx=0;exitDy=0;" edge="1" parent="1" source="q7EGyFAUahFd5ot8oOuE-9">
          <mxGeometry relative="1" as="geometry">
            <mxPoint x="430" y="205" as="targetPoint" />
          </mxGeometry>
        </mxCell>
        <mxCell id="q7EGyFAUahFd5ot8oOuE-9" value="" style="rounded=1;whiteSpace=wrap;html=1;sketch=0;glass=0;shadow=0;" vertex="1" parent="1">
          <mxGeometry x="250" y="60" width="130" height="290" as="geometry" />
        </mxCell>
        <mxCell id="q7EGyFAUahFd5ot8oOuE-12" value="mix" style="rounded=1;whiteSpace=wrap;html=1;sketch=0;fillColor=#dae8fc;strokeColor=#6c8ebf;" vertex="1" parent="1">
          <mxGeometry x="280" y="115" width="70" height="30" as="geometry" />
        </mxCell>
        <mxCell id="q7EGyFAUahFd5ot8oOuE-13" value="脚手架层" style="text;html=1;align=center;verticalAlign=middle;resizable=0;points=[];autosize=1;strokeColor=none;fillColor=none;" vertex="1" parent="1">
          <mxGeometry x="260" y="70" width="60" height="20" as="geometry" />
        </mxCell>
        <mxCell id="q7EGyFAUahFd5ot8oOuE-16" value="小程序" style="rounded=1;whiteSpace=wrap;html=1;sketch=0;fillColor=#dae8fc;strokeColor=#6c8ebf;" vertex="1" parent="1">
          <mxGeometry x="280" y="165" width="70" height="30" as="geometry" />
        </mxCell>
        <mxCell id="q7EGyFAUahFd5ot8oOuE-17" value="RN" style="rounded=1;whiteSpace=wrap;html=1;sketch=0;fillColor=#dae8fc;strokeColor=#6c8ebf;" vertex="1" parent="1">
          <mxGeometry x="280" y="215" width="70" height="30" as="geometry" />
        </mxCell>
        <mxCell id="q7EGyFAUahFd5ot8oOuE-18" value="运营活动" style="rounded=1;whiteSpace=wrap;html=1;sketch=0;fillColor=#dae8fc;strokeColor=#6c8ebf;" vertex="1" parent="1">
          <mxGeometry x="280" y="265" width="70" height="30" as="geometry" />
        </mxCell>
        <mxCell id="q7EGyFAUahFd5ot8oOuE-20" value="" style="rounded=1;whiteSpace=wrap;html=1;sketch=0;glass=0;shadow=0;" vertex="1" parent="1">
          <mxGeometry x="430" y="60" width="190" height="290" as="geometry" />
        </mxCell>
        <mxCell id="q7EGyFAUahFd5ot8oOuE-21" value="服务层" style="text;html=1;align=center;verticalAlign=middle;resizable=0;points=[];autosize=1;strokeColor=none;fillColor=none;" vertex="1" parent="1">
          <mxGeometry x="435" y="70" width="50" height="20" as="geometry" />
        </mxCell>
        <mxCell id="q7EGyFAUahFd5ot8oOuE-28" value="" style="edgeStyle=orthogonalEdgeStyle;rounded=0;orthogonalLoop=1;jettySize=auto;html=1;strokeColor=#66B2FF;" edge="1" parent="1" source="q7EGyFAUahFd5ot8oOuE-22" target="q7EGyFAUahFd5ot8oOuE-23">
          <mxGeometry relative="1" as="geometry" />
        </mxCell>
        <mxCell id="q7EGyFAUahFd5ot8oOuE-22" value="创建远程git仓库" style="rounded=1;whiteSpace=wrap;html=1;sketch=0;fillColor=#dae8fc;strokeColor=#6c8ebf;" vertex="1" parent="1">
          <mxGeometry x="450" y="115" width="70" height="30" as="geometry" />
        </mxCell>
        <mxCell id="q7EGyFAUahFd5ot8oOuE-29" value="" style="edgeStyle=orthogonalEdgeStyle;rounded=0;orthogonalLoop=1;jettySize=auto;html=1;strokeColor=#66B2FF;" edge="1" parent="1" source="q7EGyFAUahFd5ot8oOuE-23" target="q7EGyFAUahFd5ot8oOuE-24">
          <mxGeometry relative="1" as="geometry" />
        </mxCell>
        <mxCell id="q7EGyFAUahFd5ot8oOuE-23" value="授予开发权限" style="rounded=1;whiteSpace=wrap;html=1;sketch=0;fillColor=#dae8fc;strokeColor=#6c8ebf;" vertex="1" parent="1">
          <mxGeometry x="450" y="190" width="70" height="30" as="geometry" />
        </mxCell>
        <mxCell id="q7EGyFAUahFd5ot8oOuE-30" value="" style="edgeStyle=orthogonalEdgeStyle;rounded=0;orthogonalLoop=1;jettySize=auto;html=1;" edge="1" parent="1" source="q7EGyFAUahFd5ot8oOuE-24" target="q7EGyFAUahFd5ot8oOuE-25">
          <mxGeometry relative="1" as="geometry" />
        </mxCell>
        <mxCell id="q7EGyFAUahFd5ot8oOuE-24" value="自动写入所选工具" style="rounded=1;whiteSpace=wrap;html=1;sketch=0;fillColor=#dae8fc;strokeColor=#6c8ebf;" vertex="1" parent="1">
          <mxGeometry x="450" y="265" width="70" height="30" as="geometry" />
        </mxCell>
        <mxCell id="q7EGyFAUahFd5ot8oOuE-31" value="" style="edgeStyle=orthogonalEdgeStyle;rounded=0;orthogonalLoop=1;jettySize=auto;html=1;strokeColor=#66B2FF;" edge="1" parent="1" source="q7EGyFAUahFd5ot8oOuE-25" target="q7EGyFAUahFd5ot8oOuE-26">
          <mxGeometry relative="1" as="geometry" />
        </mxCell>
        <mxCell id="q7EGyFAUahFd5ot8oOuE-25" value="生成模板代码" style="rounded=1;whiteSpace=wrap;html=1;sketch=0;fillColor=#dae8fc;strokeColor=#6c8ebf;" vertex="1" parent="1">
          <mxGeometry x="540" y="265" width="70" height="30" as="geometry" />
        </mxCell>
        <mxCell id="q7EGyFAUahFd5ot8oOuE-32" value="" style="edgeStyle=orthogonalEdgeStyle;rounded=0;orthogonalLoop=1;jettySize=auto;html=1;strokeColor=#66B2FF;" edge="1" parent="1" source="q7EGyFAUahFd5ot8oOuE-26" target="q7EGyFAUahFd5ot8oOuE-27">
          <mxGeometry relative="1" as="geometry" />
        </mxCell>
        <mxCell id="q7EGyFAUahFd5ot8oOuE-26" value="安装依赖" style="rounded=1;whiteSpace=wrap;html=1;sketch=0;fillColor=#dae8fc;strokeColor=#6c8ebf;" vertex="1" parent="1">
          <mxGeometry x="540" y="190" width="70" height="30" as="geometry" />
        </mxCell>
        <mxCell id="q7EGyFAUahFd5ot8oOuE-27" value="自动提交生成代码" style="rounded=1;whiteSpace=wrap;html=1;sketch=0;fillColor=#dae8fc;strokeColor=#6c8ebf;" vertex="1" parent="1">
          <mxGeometry x="540" y="115" width="70" height="30" as="geometry" />
        </mxCell>
      </root>
    </mxGraphModel>
  </diagram>
</mxfile>
